<?xml version="1.0" encoding="UTF-8" standalone="no"?>
<svg
   width="669.04816"
   height="720.16663"
   overflow="hidden"
   version="1.1"
   id="svg92"
   sodipodi:docname="evolution.svg"
   inkscape:version="1.1 (c68e22c387, 2021-05-23)"
   xmlns:inkscape="http://www.inkscape.org/namespaces/inkscape"
   xmlns:sodipodi="http://sodipodi.sourceforge.net/DTD/sodipodi-0.dtd"
   xmlns="http://www.w3.org/2000/svg"
   xmlns:svg="http://www.w3.org/2000/svg">
  <defs
     id="defs96">
    <clipPath
       clipPathUnits="userSpaceOnUse"
       id="clipPath202">
      <rect
         style="opacity:0.7;fill:#1f77b4;fill-opacity:0;stroke:#1f77b4;stroke-width:0.942716"
         id="rect204"
         width="669.04816"
         height="726.2868"
         x="89.223099"
         y="-5.2138181" />
    </clipPath>
  </defs>
  <sodipodi:namedview
     id="namedview94"
     pagecolor="#ffffff"
     bordercolor="#666666"
     borderopacity="1.0"
     inkscape:pageshadow="2"
     inkscape:pageopacity="0.0"
     inkscape:pagecheckerboard="0"
     showgrid="false"
     inkscape:zoom="1.0484375"
     inkscape:cx="550.81967"
     inkscape:cy="360.05961"
     inkscape:window-width="2560"
     inkscape:window-height="1351"
     inkscape:window-x="-9"
     inkscape:window-y="642"
     inkscape:window-maximized="1"
     inkscape:current-layer="svg92" />
  <g
     id="g90"
     clip-path="url(#clipPath202)"
     transform="translate(-89.223099,0.16661202)">
    <rect
       x="0"
       y="0"
       width="1280"
       height="720"
       fill="#ffffff"
       id="rect2" />
    <path
       d="m 351.5,14.3334 c 0,-7.63995 6.193,-13.833347 13.833,-13.833347 h 212.334 c 7.64,0 13.833,6.193397 13.833,13.833347 v 55.3333 c 0,7.64 -6.193,13.8334 -13.833,13.8334 H 365.333 c -7.64,0 -13.833,-6.1934 -13.833,-13.8334 z"
       stroke="#000000"
       stroke-width="1.33333"
       stroke-miterlimit="8"
       fill="#d9d9d9"
       fill-rule="evenodd"
       id="path4" />
    <text
       font-family="Calibri, Calibri_MSFontService, sans-serif"
       font-weight="700"
       font-size="24px"
       transform="translate(372.123,49)"
       id="text6">Initialize</text>
    <text
       font-family="Calibri, Calibri_MSFontService, sans-serif"
       font-weight="700"
       font-size="24px"
       transform="translate(461.343,49)"
       id="text8">population</text>
    <path
       d="m 351.5,129.333 c 0,-7.64 6.193,-13.833 13.833,-13.833 h 212.334 c 7.64,0 13.833,6.193 13.833,13.833 v 55.334 c 0,7.64 -6.193,13.833 -13.833,13.833 H 365.333 c -7.64,0 -13.833,-6.193 -13.833,-13.833 z"
       stroke="#000000"
       stroke-width="1.33333"
       stroke-miterlimit="8"
       fill="#d9d9d9"
       fill-rule="evenodd"
       id="path10" />
    <text
       font-family="Calibri, Calibri_MSFontService, sans-serif"
       font-weight="700"
       font-size="24px"
       transform="translate(379.97,164)"
       id="text12">Fitness</text>
    <text
       font-family="Calibri, Calibri_MSFontService, sans-serif"
       font-weight="700"
       font-size="24px"
       transform="translate(454.47,164)"
       id="text14">c</text>
    <text
       font-family="Calibri, Calibri_MSFontService, sans-serif"
       font-weight="700"
       font-size="24px"
       transform="translate(464.33,164)"
       id="text16">alculation</text>
    <path
       d="M 3.01828e-6,-3 17.3918,-2.99998 v 6 L -3.01828e-6,3 Z M 14.3919,-9 32.3918,1.04987e-4 14.3918,9 Z"
       transform="matrix(0,1,1,0,471,82.9999)"
       id="path18" />
    <path
       d="m 350.5,304 120,-72.5 120,72.5 -120,72.5 z"
       stroke="#000000"
       stroke-width="1.33333"
       stroke-miterlimit="8"
       fill="#d9d9d9"
       fill-rule="evenodd"
       id="path20" />
    <text
       font-family="Calibri, Calibri_MSFontService, sans-serif"
       font-weight="700"
       font-size="24px"
       transform="translate(420.333,297)"
       id="text22">Terminate</text>
    <text
       font-family="Calibri, Calibri_MSFontService, sans-serif"
       font-weight="700"
       font-size="24px"
       transform="translate(464.787,326)"
       id="text24">?</text>
    <path
       d="m 473.667,198.019 -0.111,17.402 -6,-0.038 0.111,-17.402 z m 5.994,14.719 -9.661,17.654 -8.327,-18.321 z"
       id="path26" />
    <path
       d="m 510.5,437.333 c 0,-7.64 6.193,-13.833 13.833,-13.833 h 212.334 c 7.64,0 13.833,6.193 13.833,13.833 v 55.334 c 0,7.64 -6.193,13.833 -13.833,13.833 H 524.333 c -7.64,0 -13.833,-6.193 -13.833,-13.833 z"
       stroke="#000000"
       stroke-width="1.33333"
       stroke-miterlimit="8"
       fill="#d9d9d9"
       fill-rule="evenodd"
       id="path28" />
    <text
       font-family="Calibri, Calibri_MSFontService, sans-serif"
       font-weight="700"
       font-size="24px"
       transform="translate(584.873,472)"
       id="text30">Selection</text>
    <path
       d="m 0,-3 h 26.4163 v 163 l -3,-3 h 8.4161 v 6 H 20.4163 V 0 l 3,3 H 0 Z m 28.8324,154 18,9 -18,9 z"
       transform="matrix(0,1,1,0,470,376)"
       id="path32" />
    <path
       d="m 511.5,541.333 c 0,-7.64 6.193,-13.833 13.833,-13.833 h 212.334 c 7.64,0 13.833,6.193 13.833,13.833 v 55.334 c 0,7.64 -6.193,13.833 -13.833,13.833 H 525.333 c -7.64,0 -13.833,-6.193 -13.833,-13.833 z"
       stroke="#000000"
       stroke-width="1.33333"
       stroke-miterlimit="8"
       fill="#d9d9d9"
       fill-rule="evenodd"
       id="path34" />
    <text
       font-family="Calibri, Calibri_MSFontService, sans-serif"
       font-weight="700"
       font-size="24px"
       transform="translate(582.5,576)"
       id="text36">Crossover</text>
    <path
       d="M 0.0533117,-2.99953 6.30486,-2.88841 6.19824,3.11064 -0.0533117,2.99953 Z M 3.58694,-8.99382 21.2413,0.666667 2.92028,8.99382 Z"
       transform="matrix(0,1,1,0,630,506)"
       id="path38" />
    <path
       d="m 510.5,646.167 c 0,-7.548 6.119,-13.667 13.667,-13.667 h 212.666 c 7.548,0 13.667,6.119 13.667,13.667 v 54.666 c 0,7.548 -6.119,13.667 -13.667,13.667 H 524.167 c -7.548,0 -13.667,-6.119 -13.667,-13.667 z"
       stroke="#000000"
       stroke-width="1.33333"
       stroke-miterlimit="8"
       fill="#d9d9d9"
       fill-rule="evenodd"
       id="path40" />
    <text
       font-family="Calibri, Calibri_MSFontService, sans-serif"
       font-weight="700"
       font-size="24px"
       transform="translate(583.683,680)"
       id="text42">Mutation</text>
    <path
       d="m 633.666,610.05 -0.111,6.696 -5.999,-0.1 0.111,-6.696 z m 5.995,3.982 -9.661,17.654 -8.327,-18.321 z"
       id="path44" />
    <path
       d="M 510.048,675.427 H 212 V 596 h 6 v 76.427 l -3,-3 H 510.048 Z M 206,599 l 9,-18 9,18 z"
       id="path46" />
    <path
       d="m 95.5001,379.333 c 0,-7.64 6.1929,-13.833 13.8329,-13.833 h 212.334 c 7.64,0 13.833,6.193 13.833,13.833 v 55.334 c 0,7.64 -6.193,13.833 -13.833,13.833 H 109.333 c -7.64,0 -13.8329,-6.193 -13.8329,-13.833 z"
       stroke="#000000"
       stroke-width="1.33333"
       stroke-miterlimit="8"
       fill="#d9d9d9"
       fill-rule="evenodd"
       id="path48" />
    <text
       font-family="Calibri, Calibri_MSFontService, sans-serif"
       font-weight="700"
       font-size="24px"
       transform="translate(131.998,414)"
       id="text50">Filter</text>
    <text
       font-family="Calibri, Calibri_MSFontService, sans-serif"
       font-weight="700"
       font-size="24px"
       transform="translate(188.705,414)"
       id="text52">population</text>
    <path
       d="m 95.5001,215.333 c 0,-7.64 6.1929,-13.833 13.8329,-13.833 h 212.334 c 7.64,0 13.833,6.193 13.833,13.833 v 55.334 c 0,7.64 -6.193,13.833 -13.833,13.833 H 109.333 c -7.64,0 -13.8329,-6.193 -13.8329,-13.833 z"
       stroke="#000000"
       stroke-width="1.33333"
       stroke-miterlimit="8"
       fill="#d9d9d9"
       fill-rule="evenodd"
       id="path54" />
    <text
       font-family="Calibri, Calibri_MSFontService, sans-serif"
       font-weight="700"
       font-size="24px"
       transform="translate(118.185,236)"
       id="text56">Fill</text>
    <text
       font-family="Calibri, Calibri_MSFontService, sans-serif"
       font-weight="700"
       font-size="24px"
       transform="translate(152.185,236)"
       id="text58">population</text>
    <text
       font-family="Calibri, Calibri_MSFontService, sans-serif"
       font-weight="700"
       font-size="24px"
       transform="translate(266.298,236)"
       id="text60">with</text>
    <text
       font-family="Calibri, Calibri_MSFontService, sans-serif"
       font-weight="700"
       font-size="24px"
       transform="translate(119.338,265)"
       id="text62">random</text>
    <text
       font-family="Calibri, Calibri_MSFontService, sans-serif"
       font-weight="700"
       font-size="24px"
       transform="translate(202.645,265)"
       id="text64">individuals</text>
    <path
       d="M 212,201.49 V 154 h 124.382 v 6 H 215 l 3,-3 v 44.49 z M 333.382,148 l 18,9 -18,9 z"
       id="path66" />
    <path
       d="M 3,-3.88978e-6 3.00009,65.9713 h -6 L -3,3.88978e-6 Z M 9.00008,62.9713 1.04987e-4,80.9713 -8.99992,62.9714 Z"
       transform="matrix(1,0,0,-1,215,364.971)"
       id="path68" />
    <path
       d="m 330.5,529.833 c 0,-5.707 4.626,-10.333 10.333,-10.333 h 142.334 c 5.707,0 10.333,4.626 10.333,10.333 v 41.334 c 0,5.707 -4.626,10.333 -10.333,10.333 H 340.833 c -5.707,0 -10.333,-4.626 -10.333,-10.333 z"
       stroke="#000000"
       stroke-width="1.33333"
       stroke-miterlimit="8"
       fill="#d9d9d9"
       fill-rule="evenodd"
       id="path70" />
    <text
       font-family="Calibri, Calibri_MSFontService, sans-serif"
       font-weight="700"
       font-size="24px"
       transform="translate(378.634,558)"
       id="text72">Elitism</text>
    <path
       d="m 473.489,376 v 26.365 H 412 l 3,-3 v 104.367 h -6 V 396.365 h 61.489 l -3,3 V 376 Z M 421,500.732 l -9,18 -9,-18 z"
       id="path74" />
    <path
       d="m 0,-3 h 66.5281 v 85.9022 h -6 V 0 l 3,3 H 0 Z m 72.5281,82.9022 -9,17.9999 -9,-17.9999 z"
       transform="matrix(0,1,1,0,412,581)"
       id="path76" />
    <path
       d="m 117.5,529.833 c 0,-5.707 4.626,-10.333 10.333,-10.333 h 176.334 c 5.707,0 10.333,4.626 10.333,10.333 v 41.334 c 0,5.707 -4.626,10.333 -10.333,10.333 H 127.833 c -5.707,0 -10.333,-4.626 -10.333,-10.333 z"
       stroke="#000000"
       stroke-width="1.33333"
       stroke-miterlimit="8"
       fill="#d9d9d9"
       fill-rule="evenodd"
       id="path78" />
    <text
       font-family="Calibri, Calibri_MSFontService, sans-serif"
       font-weight="700"
       font-size="24px"
       transform="translate(129.591,558)"
       id="text80">(</text>
    <text
       font-family="Calibri, Calibri_MSFontService, sans-serif"
       font-weight="700"
       font-size="24px"
       transform="translate(137.091,558)"
       id="text82">Symmetrization</text>
    <text
       font-family="Calibri, Calibri_MSFontService, sans-serif"
       font-weight="700"
       font-size="24px"
       transform="translate(293.558,558)"
       id="text84">)</text>
    <path
       d="M 2.99989,-0.0254845 3.53924,63.4638 -2.46054,63.5147 -2.99989,0.0254845 Z M 9.51354,60.4129 0.666772,78.4887 -8.48581,60.5658 Z"
       transform="matrix(-1,0,0,1,411.667,594)"
       id="path86" />
    <path
       d="m 212.667,518.823 -0.526,-55.795 6,-0.057 0.526,55.796 z M 206.17,466.084 215,448 l 9.169,17.914 z"
       id="path88" />
  </g>
</svg>
